<?xml version="1.0" standalone="no"?>
<!DOCTYPE svg PUBLIC "-//W3C//DTD SVG 20010904//EN"
 "http://www.w3.org/TR/2001/REC-SVG-20010904/DTD/svg10.dtd">
<svg version="1.0" xmlns="http://www.w3.org/2000/svg"
 width="1024.000000pt" height="1024.000000pt" viewBox="0 0 1024.000000 1024.000000"
 preserveAspectRatio="xMidYMid meet">

<g transform="translate(0.000000,1024.000000) scale(0.100000,-0.100000)"
fill="#000000" stroke="none">
<path d="M0 5120 l0 -5120 5120 0 5120 0 0 5120 0 5120 -5120 0 -5120 0 0
-5120z m5415 2045 c207 -37 421 -102 595 -182 99 -45 315 -168 405 -231 189
-131 413 -343 546 -517 133 -173 279 -438 343 -622 48 -141 115 -425 132 -562
26 -219 16 -540 -22 -731 -29 -143 -119 -437 -160 -524 l-23 -48 20 -72 c33
-112 38 -348 10 -485 -33 -158 -84 -254 -196 -367 -77 -79 -103 -98 -185 -138
-136 -65 -240 -90 -355 -83 -181 10 -321 73 -517 230 l-110 87 -124 -40 c-162
-51 -345 -86 -558 -107 -323 -31 -693 12 -996 115 -80 28 -289 119 -334 146
-12 7 -69 43 -127 80 -58 36 -110 66 -115 66 -6 0 -20 -20 -31 -44 -70 -143
-170 -181 -289 -110 -74 44 -105 73 -160 151 -58 80 -101 176 -113 253 -6 34
-17 67 -24 74 -24 19 -92 126 -137 216 -57 114 -111 267 -160 455 -51 198 -69
334 -77 565 -6 192 -1 242 53 510 20 102 78 293 109 365 7 17 23 57 35 90 13
33 28 67 34 75 6 8 22 38 35 65 12 28 28 59 34 70 6 11 21 40 34 65 31 59 43
79 71 117 12 17 22 35 22 40 0 5 11 20 25 33 14 13 25 29 25 35 0 6 12 22 26
36 14 13 29 32 33 41 12 33 197 221 316 322 411 351 843 532 1375 580 100 9
448 -3 535 -19z"/>
<path d="M5258 6863 c12 -2 30 -2 40 0 9 3 -1 5 -23 4 -22 0 -30 -2 -17 -4z"/>
<path d="M5355 6849 c51 -10 92 -10 50 1 -16 4 -43 8 -60 8 -25 0 -24 -2 10
-9z"/>
<path d="M5493 6823 c9 -2 23 -2 30 0 6 3 -1 5 -18 5 -16 0 -22 -2 -12 -5z"/>
<path d="M5770 6751 c0 -6 6 -11 14 -11 8 0 36 -9 62 -20 26 -11 52 -19 57
-17 6 2 -19 14 -54 27 -35 14 -67 26 -71 28 -5 2 -8 -1 -8 -7z"/>
<path d="M5927 6689 c7 -7 15 -10 18 -7 3 3 -2 9 -12 12 -14 6 -15 5 -6 -5z"/>
<path d="M6090 6606 c0 -8 71 -48 76 -43 3 3 -12 15 -35 27 -23 11 -41 18 -41
16z"/>
<path d="M6186 6543 c-12 -12 -6 -22 9 -17 8 4 15 1 15 -5 0 -6 5 -11 10 -11
6 0 10 4 10 10 0 12 -35 31 -44 23z"/>
<path d="M4982 6499 c-94 -12 -294 -66 -350 -94 -28 -14 -53 -25 -58 -25 -8 0
-235 -113 -269 -133 -85 -53 -254 -189 -320 -258 -114 -120 -135 -147 -201
-252 -33 -51 -65 -102 -72 -113 -45 -69 -139 -329 -169 -464 -8 -36 -21 -198
-28 -360 -8 -162 -17 -331 -19 -375 -5 -70 -4 -73 4 -26 4 30 11 100 14 155 7
107 19 264 36 461 20 226 120 533 209 639 14 17 35 47 45 66 30 53 46 67 57
49 5 -8 9 -24 9 -37 0 -13 4 -20 10 -17 6 4 10 -9 10 -32 0 -22 5 -44 12 -51
15 -15 21 -272 7 -272 -5 0 -9 -18 -9 -41 0 -31 3 -40 14 -36 9 4 12 0 9 -13
-3 -10 0 -21 6 -24 6 -4 11 -19 11 -33 0 -42 22 -93 40 -93 14 0 19 -23 29
-162 19 -271 29 -430 30 -495 1 -56 3 -63 21 -63 19 0 20 -7 20 -113 0 -72 -4
-117 -12 -125 -8 -8 -5 -16 13 -31 13 -11 30 -20 38 -21 8 0 39 -26 70 -57
317 -324 758 -502 1171 -473 107 8 159 18 365 71 137 36 337 129 441 206 17
13 34 23 38 23 4 0 12 4 19 10 7 5 53 42 102 81 50 40 106 90 127 112 23 25
41 36 49 32 8 -5 10 -4 5 4 -11 18 40 81 63 76 13 -2 24 8 40 37 29 54 21 59
-13 7 -15 -22 -30 -38 -33 -35 -3 3 2 12 11 21 9 9 13 21 10 27 -5 7 -2 8 6 3
10 -6 12 -4 7 9 -4 9 -3 15 2 12 12 -8 34 21 26 34 -4 6 -1 9 6 8 19 -4 61 63
56 90 -3 18 -2 20 9 11 11 -9 14 -7 15 7 0 13 4 10 11 -9 7 -21 7 -32 -1 -40
-8 -8 -11 -6 -11 9 -1 17 -2 17 -10 2 -8 -12 -5 -26 8 -50 20 -36 18 -68 -3
-68 -7 0 -16 -13 -20 -29 -3 -16 -20 -41 -37 -55 l-31 -25 28 -7 c21 -5 31 -2
42 12 11 15 15 16 22 5 12 -18 25 -157 16 -171 -3 -5 1 -10 9 -10 9 0 16 -8
16 -17 1 -22 27 -59 36 -50 4 4 2 12 -3 19 -14 18 -23 58 -13 58 21 0 40 -14
40 -29 1 -22 24 -51 42 -51 9 0 18 10 22 22 7 27 23 14 28 -22 1 -14 9 -28 17
-31 15 -6 61 34 61 54 0 8 4 6 11 -3 8 -12 9 -11 4 6 -7 26 30 76 43 57 5 -8
13 2 24 32 13 35 14 43 3 39 -9 -4 -16 4 -20 23 -4 15 -8 33 -10 40 -2 7 -1
14 3 17 7 4 8 29 3 74 0 6 -10 12 -21 12 -17 0 -20 7 -20 39 0 35 3 39 33 46
17 4 26 9 20 12 -20 7 -15 23 7 23 12 0 20 7 20 18 1 16 1 16 14 0 19 -26 24
-22 29 20 3 26 4 20 5 -23 2 -43 5 -56 12 -45 11 16 3 98 -11 115 -4 6 -6 31
-4 55 2 25 2 39 -1 33 -3 -7 -15 -13 -26 -13 -15 0 -19 5 -15 20 3 11 1 18 -4
14 -5 -3 -9 -12 -9 -20 0 -17 -16 -19 -23 -1 -3 6 -6 -3 -6 -20 -1 -32 -3 -33
-41 -33 -33 0 -40 3 -40 20 0 17 -7 20 -40 20 -33 0 -40 -3 -40 -20 0 -11 -7
-20 -15 -20 -18 0 -20 31 -3 48 9 9 9 12 0 12 -7 0 -21 9 -31 19 -16 16 -22
17 -37 7 -13 -10 -14 -17 -7 -31 12 -20 6 -55 -9 -55 -5 0 -8 6 -5 13 2 6 -2
27 -9 45 -7 18 -9 30 -4 27 6 -3 10 1 10 9 0 9 3 16 8 16 4 0 8 17 8 38 3 66
9 100 18 95 4 -3 7 15 5 40 -2 25 0 45 5 44 12 -3 29 61 23 85 -3 10 -1 18 4
18 5 0 9 12 8 28 l-1 27 -7 -25 c-13 -43 -24 59 -19 168 4 68 2 103 -7 117 -7
11 -16 47 -20 80 -4 33 -12 63 -18 67 -6 3 -10 20 -10 37 0 16 -4 28 -9 25 -7
-5 -12 19 -11 54 1 6 -3 12 -9 12 -5 0 -7 4 -3 9 3 5 1 12 -4 15 -5 3 -12 18
-15 33 -10 40 -30 83 -38 83 -4 0 -12 9 -18 19 -9 17 -7 19 10 16 15 -3 20 2
20 19 0 20 -5 23 -29 21 -19 -1 -32 3 -35 12 -3 8 -1 11 4 8 6 -3 7 1 4 9 -3
9 -10 13 -15 10 -5 -3 -6 1 -4 9 3 7 -6 30 -20 50 -20 31 -22 39 -10 43 8 4
15 17 15 31 0 20 -4 23 -20 18 -17 -5 -20 -2 -20 25 0 39 -43 96 -58 77 -5 -7
-11 -18 -14 -26 -2 -8 -11 -15 -20 -17 -11 -1 -15 3 -11 14 5 11 2 14 -10 9
-9 -3 -19 -1 -23 5 -4 7 -3 8 4 4 25 -15 11 13 -14 29 -18 11 -24 12 -18 4 6
-12 5 -12 -9 0 -9 7 -14 18 -11 23 3 5 -3 12 -14 15 -11 3 -23 11 -26 19 -3 8
-12 14 -19 14 -8 0 -21 8 -28 18 -13 15 -12 16 4 3 25 -20 31 -8 6 14 -16 15
-22 16 -28 6 -6 -9 -11 -10 -15 -2 -4 6 -4 11 1 11 4 0 -8 10 -28 23 -72 44
-99 64 -94 69 3 2 -1 5 -8 5 -6 0 -52 22 -102 50 -49 27 -121 62 -160 77 -38
15 -77 30 -85 35 -38 21 -196 62 -310 80 -132 22 -361 27 -488 10z m1550 -574
c1 -5 8 -16 15 -23 16 -16 17 -29 1 -38 -7 -5 -8 -3 -3 5 4 8 -4 24 -21 43
-23 23 -25 29 -11 27 10 -2 19 -8 19 -14z m-1686 -505 c71 -35 143 -111 192
-203 24 -48 27 -62 27 -162 0 -99 -3 -116 -28 -170 -58 -125 -165 -200 -322
-225 -170 -27 -348 67 -426 226 -27 54 -31 73 -32 150 -2 132 28 219 102 294
94 96 190 132 334 126 74 -3 98 -9 153 -36z m1064 20 c166 -31 293 -153 326
-313 44 -211 -81 -395 -304 -448 -98 -24 -155 -24 -223 0 -125 44 -208 114
-258 221 -22 48 -26 68 -26 155 0 94 2 105 34 169 41 83 93 136 175 176 89 43
185 57 276 40z m900 -890 c0 -5 -4 -10 -10 -10 -5 0 -10 5 -10 10 0 6 5 10 10
10 6 0 10 -4 10 -10z m-54 -56 c-4 -9 -9 -15 -11 -12 -3 3 -3 13 1 22 4 9 9
15 11 12 3 -3 3 -13 -1 -22z m304 -28 c0 -3 -4 -8 -10 -11 -5 -3 -10 -1 -10 4
0 6 5 11 10 11 6 0 10 -2 10 -4z m-83 -302 c-3 -3 -12 -4 -19 -1 -8 3 -5 6 6
6 11 1 17 -2 13 -5z m-2854 -11 c-7 -2 -19 -2 -25 0 -7 3 -2 5 12 5 14 0 19
-2 13 -5z m2697 -83 c0 -5 -4 -10 -10 -10 -5 0 -10 5 -10 10 0 6 5 10 10 10 6
0 10 -4 10 -10z m240 -17 c0 -5 -5 -15 -10 -23 -8 -12 -10 -11 -10 8 0 12 5
22 10 22 6 0 10 -3 10 -7z m-180 -37 c0 -3 -4 -8 -10 -11 -5 -3 -10 -1 -10 4
0 6 5 11 10 11 6 0 10 -2 10 -4z m50 -25 c0 -6 -4 -13 -10 -16 -5 -3 -10 1
-10 9 0 9 5 16 10 16 6 0 10 -4 10 -9z m46 -13 c0 -21 -9 -23 -25 -5 -12 15
-8 24 12 24 7 0 13 -9 13 -19z"/>
<path d="M6235 6500 c-3 -5 -2 -10 4 -10 5 0 13 5 16 10 3 6 2 10 -4 10 -5 0
-13 -4 -16 -10z"/>
<path d="M6267 6493 c-12 -11 -8 -25 6 -21 11 4 48 -25 46 -38 0 -3 3 -9 7
-12 4 -4 4 -1 -1 7 -5 9 -4 12 3 7 17 -10 15 -15 -10 -27 l-23 -10 24 5 c31 6
69 -12 77 -37 5 -16 8 -17 15 -6 7 11 9 10 9 -4 0 -10 4 -16 8 -13 5 3 17 -7
28 -22 10 -14 31 -40 46 -57 25 -28 27 -29 34 -11 5 14 2 23 -11 30 -10 6 -43
36 -74 67 -31 31 -72 66 -91 79 -19 13 -47 34 -61 47 -14 13 -28 20 -32 16z
m248 -223 c10 -11 16 -20 13 -20 -3 0 -13 9 -23 20 -10 11 -16 20 -13 20 3 0
13 -9 23 -20z"/>
<path d="M6245 6430 c3 -5 8 -10 11 -10 2 0 4 5 4 10 0 6 -5 10 -11 10 -5 0
-7 -4 -4 -10z"/>
<path d="M6270 6410 c0 -5 5 -10 10 -10 6 0 10 5 10 10 0 6 -4 10 -10 10 -5 0
-10 -4 -10 -10z"/>
<path d="M6390 6311 c0 -5 5 -13 10 -16 6 -3 10 -2 10 4 0 5 -4 13 -10 16 -5
3 -10 2 -10 -4z"/>
<path d="M6440 6256 c0 -9 8 -16 19 -16 11 0 21 -6 24 -12 3 -7 4 -3 4 9 -1
12 -5 19 -10 16 -4 -2 -14 1 -22 7 -12 10 -15 9 -15 -4z"/>
<path d="M6545 6241 c-7 -12 12 -24 25 -16 11 7 4 25 -10 25 -5 0 -11 -4 -15
-9z"/>
<path d="M6570 6210 c0 -5 5 -10 11 -10 5 0 7 -5 4 -10 -4 -6 -12 -7 -18 -3
-7 4 -6 -1 2 -10 10 -13 17 -14 26 -7 10 8 15 6 20 -9 3 -10 12 -22 20 -25 9
-3 12 -12 8 -23 -5 -15 -3 -15 10 2 14 18 14 21 -1 27 -9 4 -13 7 -7 7 9 1
-60 71 -70 71 -3 0 -5 -4 -5 -10z"/>
<path d="M6506 6202 c-6 -9 4 -21 31 -36 10 -5 11 -1 4 15 -9 25 -26 35 -35
21z"/>
<path d="M6657 6099 c-4 -17 -3 -19 6 -10 6 6 14 11 18 11 11 0 -3 -55 -17
-63 -8 -4 -14 -16 -14 -25 0 -13 -2 -14 -9 -4 -4 8 -12 13 -16 12 -5 -1 -16
13 -24 31 -20 41 -41 49 -41 16 0 -16 7 -26 20 -30 15 -4 20 -14 20 -41 0 -29
4 -36 19 -36 11 0 18 -6 17 -16 0 -10 14 -21 39 -29 45 -16 53 -14 30 9 -10
10 -14 24 -10 33 5 15 7 15 16 3 8 -13 10 -13 18 -1 6 9 5 21 -2 32 -8 14 -9
21 0 30 8 8 13 7 18 -2 5 -8 4 -10 -3 -5 -7 4 -12 3 -12 -3 0 -16 18 -22 24
-9 3 7 3 2 -1 -12 -5 -22 -4 -23 10 -12 15 13 13 18 -16 58 -18 24 -38 43 -46
44 -8 0 -11 3 -8 7 7 7 -11 33 -23 33 -4 0 -10 -10 -13 -21z m43 -86 c0 -20
-3 -24 -11 -16 -7 7 -9 19 -6 27 10 24 17 19 17 -11z"/>
<path d="M6776 5964 c-7 -19 10 -44 27 -41 7 1 11 -4 9 -11 -1 -8 2 -11 8 -7
7 4 2 18 -12 38 -12 18 -22 33 -24 35 -1 2 -4 -5 -8 -14z m22 -29 c-3 -3 -9 2
-12 12 -6 14 -5 15 5 6 7 -7 10 -15 7 -18z"/>
<path d="M6746 5934 c-8 -20 0 -32 14 -18 5 5 5 15 1 22 -6 11 -10 10 -15 -4z"/>
<path d="M6828 5894 c-10 -10 83 -172 104 -182 4 -2 4 -10 1 -18 -3 -7 4 -30
16 -49 12 -20 21 -53 22 -73 0 -20 3 -31 6 -24 4 10 9 8 20 -7 20 -29 46 -120
39 -138 -3 -8 -1 -11 4 -8 6 3 10 1 10 -5 0 -6 4 -9 8 -6 5 3 6 -8 4 -25 -2
-16 0 -29 6 -29 5 0 13 -17 17 -37 4 -21 12 -45 18 -53 10 -13 10 -13 -5 -1
-10 7 -18 21 -18 30 0 10 -6 26 -14 36 -13 18 -14 18 -20 -3 -4 -13 -16 -22
-27 -22 -16 0 -19 -7 -19 -40 0 -29 4 -40 15 -40 8 0 15 -6 16 -12 1 -16 28
42 29 60 0 7 -4 11 -9 8 -4 -3 -6 6 -3 20 6 32 10 27 28 -33 11 -40 11 -45 0
-30 -13 17 -14 16 -20 -7 -3 -13 -3 -38 0 -54 6 -31 6 -31 -42 -34 -49 -3 -49
-3 -52 -40 -3 -33 0 -38 17 -38 18 0 21 -6 21 -40 0 -35 -3 -40 -22 -40 -20 0
-19 -3 13 -36 l34 -35 9 30 c11 40 21 39 24 0 3 -39 9 -49 25 -43 14 5 14 58
0 76 -19 24 -20 43 -6 92 8 27 12 57 10 67 -3 11 -1 17 4 13 5 -3 9 -23 9 -44
0 -26 6 -42 16 -48 12 -7 16 -24 16 -63 0 -30 5 -57 11 -61 6 -3 10 -30 10
-60 l-1 -53 10 51 c9 42 7 58 -5 83 -9 17 -11 33 -6 37 11 6 12 74 1 74 -4 0
-6 16 -4 36 3 27 1 35 -8 29 -9 -5 -10 -2 -6 12 8 25 -34 213 -73 328 -17 49
-31 91 -31 93 0 2 -4 1 -9 -2 -5 -3 -12 1 -15 10 -3 8 -2 12 4 9 14 -9 13 -5
-20 69 -19 42 -35 64 -42 60 -7 -4 -8 -3 -4 5 8 12 -37 109 -64 140 -8 9 -16
23 -18 31 -4 20 -27 42 -34 34z m159 -316 c-3 -8 -6 -5 -6 6 -1 11 2 17 5 13
3 -3 4 -12 1 -19z"/>
<path d="M6800 5861 c0 -6 4 -13 10 -16 6 -3 7 1 4 9 -7 18 -14 21 -14 7z"/>
<path d="M6755 5780 c-3 -5 1 -10 10 -10 9 0 13 5 10 10 -3 6 -8 10 -10 10 -2
0 -7 -4 -10 -10z"/>
<path d="M6816 5764 c-4 -10 -1 -14 6 -12 15 5 23 28 10 28 -5 0 -13 -7 -16
-16z"/>
<path d="M6874 5637 c-4 -12 -12 -25 -18 -29 -8 -6 -7 -8 1 -8 14 0 53 30 53
41 0 4 -7 9 -14 12 -10 4 -18 -2 -22 -16z"/>
<path d="M6920 5589 c0 -5 5 -7 10 -4 6 3 10 8 10 11 0 2 -4 4 -10 4 -5 0 -10
-5 -10 -11z"/>
<path d="M7025 5370 c-3 -5 -1 -10 4 -10 6 0 11 5 11 10 0 6 -2 10 -4 10 -3 0
-8 -4 -11 -10z"/>
<path d="M6842 5180 c0 -14 2 -19 5 -12 2 6 2 18 0 25 -3 6 -5 1 -5 -13z"/>
<path d="M6862 5140 c0 -14 2 -19 5 -12 2 6 2 18 0 25 -3 6 -5 1 -5 -13z"/>
<path d="M7100 4995 c0 -43 19 -87 21 -50 2 37 -3 70 -12 80 -5 5 -9 -6 -9
-30z"/>
<path d="M6872 4980 c0 -14 2 -19 5 -12 2 6 2 18 0 25 -3 6 -5 1 -5 -13z"/>
<path d="M6856 4877 c-15 -71 -16 -82 -8 -68 12 17 27 -3 16 -21 -4 -7 -3 -9
1 -5 12 10 15 88 5 107 -7 11 -10 9 -14 -13z m11 -19 c-3 -8 -6 -5 -6 6 -1 11
2 17 5 13 3 -3 4 -12 1 -19z"/>
<path d="M6962 4843 c3 -36 5 -38 38 -41 l36 -3 -4 41 c-4 38 -6 40 -39 40
-33 0 -34 -1 -31 -37z"/>
<path d="M7063 4831 c-1 -11 4 -22 12 -24 8 -4 12 1 10 11 -2 9 -4 20 -4 25
-2 16 -17 6 -18 -12z"/>
<path d="M7091 4664 c0 -11 3 -14 6 -6 3 7 2 16 -1 19 -3 4 -6 -2 -5 -13z"/>
<path d="M7040 4655 c0 -16 -8 -17 -85 -13 -81 6 -85 5 -90 -16 -12 -52 -10
-71 8 -70 9 0 50 1 91 2 l73 2 6 53 c2 28 3 54 1 56 -2 2 -4 -4 -4 -14z"/>
<path d="M7160 4586 c0 -39 -3 -55 -11 -50 -8 4 -9 -4 -4 -27 5 -26 4 -31 -5
-19 -9 12 -10 10 -4 -10 4 -14 10 -41 14 -60 4 -24 9 2 14 88 5 68 6 126 2
129 -3 4 -6 -19 -6 -51z"/>
<path d="M6680 4355 c0 -5 5 -17 10 -25 5 -8 10 -10 10 -5 0 6 -5 17 -10 25
-5 8 -10 11 -10 5z"/>
<path d="M3481 4324 c0 -11 3 -14 6 -6 3 7 2 16 -1 19 -3 4 -6 -2 -5 -13z"/>
<path d="M6647 4299 c-14 -8 -16 -14 -6 -25 13 -16 24 -11 39 17 12 22 -3 26
-33 8z"/>
<path d="M7064 4216 c-3 -8 -4 -23 -1 -33 3 -12 5 -8 6 10 0 16 5 26 11 22 6
-3 10 -1 10 4 0 16 -20 13 -26 -3z"/>
<path d="M6610 4210 c0 -5 5 -10 10 -10 6 0 10 5 10 10 0 6 -4 10 -10 10 -5 0
-10 -4 -10 -10z"/>
<path d="M6536 4171 c-4 -7 -5 -15 -2 -18 9 -9 19 4 14 18 -4 11 -6 11 -12 0z"/>
<path d="M7091 4149 c-6 -18 -9 -34 -7 -36 2 -2 9 10 15 28 6 18 9 34 7 36 -2
2 -9 -10 -15 -28z"/>
<path d="M3451 4148 c-4 -13 -11 -45 -14 -73 -5 -40 -4 -45 4 -25 11 27 28
120 22 120 -2 0 -7 -10 -12 -22z"/>
<path d="M6615 4100 c-18 -19 -17 -20 3 -20 15 0 22 6 22 20 0 11 -2 20 -3 20
-2 0 -12 -9 -22 -20z"/>
<path d="M6475 4100 c-3 -5 -1 -10 4 -10 6 0 11 5 11 10 0 6 -2 10 -4 10 -3 0
-8 -4 -11 -10z"/>
<path d="M4066 4075 c-11 -8 -15 -15 -9 -15 6 0 16 7 23 15 16 19 11 19 -14 0z"/>
<path d="M6588 3993 c12 -2 30 -2 40 0 9 3 -1 5 -23 4 -22 0 -30 -2 -17 -4z"/>
<path d="M7010 3975 c-9 -11 -8 -14 9 -12 22 1 28 12 12 21 -5 3 -14 -1 -21
-9z"/>
<path d="M7016 3935 c-9 -26 -7 -32 5 -12 6 10 9 21 6 23 -2 3 -7 -2 -11 -11z"/>
<path d="M3401 3914 c0 -11 3 -14 6 -6 3 7 2 16 -1 19 -3 4 -6 -2 -5 -13z"/>
<path d="M3815 3894 l-30 -26 33 22 c17 12 32 23 32 26 0 7 -4 5 -35 -22z"/>
<path d="M6994 3885 c-4 -8 -11 -12 -17 -8 -6 3 -7 1 -3 -5 4 -6 -13 -53 -38
-104 -25 -51 -37 -82 -28 -69 20 29 103 201 96 201 -3 0 -7 -7 -10 -15z"/>
<path d="M3351 3779 c-6 -18 -9 -34 -7 -36 2 -2 9 10 15 28 6 18 9 34 7 36 -2
2 -9 -10 -15 -28z"/>
<path d="M6859 3662 c4 -10 6 -24 4 -32 -4 -13 -3 -13 5 -1 6 8 8 21 4 29 -4
11 -1 13 9 7 8 -5 11 -4 6 0 -4 5 -14 10 -22 11 -11 2 -12 -2 -6 -14z"/>
<path d="M6838 3596 c-10 -7 -15 -16 -11 -19 3 -4 1 -7 -5 -7 -7 0 -10 -69 -9
-234 1 -129 -1 -238 -5 -242 -4 -4 -25 -10 -45 -14 -37 -7 -36 -8 15 -9 l52
-1 0 248 c0 208 2 251 16 270 17 25 16 27 -8 8z"/>
<path d="M6598 3093 c7 -3 16 -2 19 1 4 3 -2 6 -13 5 -11 0 -14 -3 -6 -6z"/>
<path d="M6643 3083 c9 -2 23 -2 30 0 6 3 -1 5 -18 5 -16 0 -22 -2 -12 -5z"/>
</g>
</svg>
